<svg width="1200" height="630" viewBox="0 0 1200 630" fill="none" xmlns="http://www.w3.org/2000/svg">
  <rect width="1200" height="630" fill="#07111F"/>
  <circle cx="175" cy="116" r="202" fill="#2563EB" fill-opacity="0.22"/>
  <circle cx="1027" cy="117" r="150" fill="#14B8A6" fill-opacity="0.18"/>
  <rect x="70" y="70" width="1060" height="490" rx="36" fill="url(#paint0_linear)" fill-opacity="0.96"/>
  <rect x="110" y="118" width="340" height="14" rx="7" fill="white" fill-opacity="0.22"/>
  <rect x="110" y="157" width="690" height="78" rx="16" fill="white" fill-opacity="0.08"/>
  <path d="M110 312H670" stroke="white" stroke-opacity="0.14" stroke-width="2"/>
  <rect x="110" y="340" width="265" height="158" rx="24" fill="white" fill-opacity="0.08"/>
  <rect x="402" y="340" width="265" height="158" rx="24" fill="white" fill-opacity="0.08"/>
  <rect x="694" y="340" width="326" height="158" rx="24" fill="white" fill-opacity="0.08"/>
  <text x="110" y="132" fill="white" fill-opacity="0.84" font-family="Arial, sans-serif" font-size="22" font-weight="700" letter-spacing="6">BUSINESS ANALYST PORTFOLIO</text>
  <text x="110" y="205" fill="white" font-family="Georgia, serif" font-size="52" font-weight="700">
    Marketing ROI &amp; Budget
  </text>
  <text x="110" y="264" fill="white" font-family="Georgia, serif" font-size="52" font-weight="700">
    Optimization Case Study
  </text>
  <text x="110" y="390" fill="white" fill-opacity="0.72" font-family="Arial, sans-serif" font-size="18" font-weight="700">ATTRIBUTION</text>
  <text x="402" y="390" fill="white" fill-opacity="0.72" font-family="Arial, sans-serif" font-size="18" font-weight="700">REGRESSION</text>
  <text x="694" y="390" fill="white" fill-opacity="0.72" font-family="Arial, sans-serif" font-size="18" font-weight="700">BUDGET STRATEGY</text>
  <text x="110" y="430" fill="white" font-family="Arial, sans-serif" font-size="34" font-weight="700">+12% ROAS uplift</text>
  <text x="402" y="430" fill="white" font-family="Arial, sans-serif" font-size="34" font-weight="700">1.58x Email elasticity</text>
  <text x="694" y="430" fill="white" font-family="Arial, sans-serif" font-size="34" font-weight="700">+$1.4M base-case lift</text>
  <defs>
    <linearGradient id="paint0_linear" x1="70" y1="70" x2="1100" y2="560" gradientUnits="userSpaceOnUse">
      <stop stop-color="#0B1730"/>
      <stop offset="0.56" stop-color="#13233E"/>
      <stop offset="1" stop-color="#0C3B47"/>
    </linearGradient>
  </defs>
</svg>
